<?xml version="1.0" encoding="utf-8"?><svg viewBox="0 0 800 800" xmlns="http://www.w3.org/2000/svg" xmlns:xlink="http://www.w3.org/1999/xlink"><style>:root>svg{display:none}:root>svg:target{display:block}</style><svg viewBox="0 0 1024 1024" class="aicon" id="c-1" xmlns="http://www.w3.org/2000/svg"><path d="M379.936 719.794c-96.128 0-186.476-37.436-254.446-105.404-140.31-140.294-140.31-368.582 0-508.892C193.458 37.53 283.808.11 379.92.11s186.476 37.42 254.43 105.388c67.986 67.968 105.422 158.334 105.438 254.448 0 96.112-37.436 186.476-105.406 254.446-67.97 67.968-158.334 105.402-254.446 105.402zm-.016-703.692c-91.834 0-178.184 35.766-243.124 100.706-134.064 134.062-134.064 352.212 0 486.278 64.94 64.956 151.29 100.718 243.138 100.718 91.834 0 178.184-35.764 243.138-100.718 64.956-64.94 100.718-151.292 100.718-243.138-.016-91.85-35.78-178.184-100.75-243.138C558.104 51.868 471.768 16.102 379.92 16.102z"/><path d="M379.92 687.78c-87.57 0-169.906-34.094-231.816-96.004-61.908-61.908-96.018-144.23-96.018-231.814.016-87.586 34.11-169.908 96.018-231.832 61.91-61.91 144.248-96.018 231.832-96.018 87.57 0 169.89 34.094 231.8 96.002 127.8 127.832 127.816 335.83.032 463.662-61.926 61.91-144.264 96.004-231.848 96.004zm.016-639.676c-83.306 0-161.628 32.438-220.524 91.332-58.896 58.896-91.318 137.218-91.334 220.524 0 83.304 32.438 161.628 91.334 220.508 58.894 58.894 137.202 91.316 220.508 91.316 83.322 0 161.644-32.422 220.54-91.316C722 458.868 722 261.02 600.428 139.42c-58.88-58.878-137.186-91.316-220.492-91.316z"/><path d="M124.052 367.958a7.99 7.99 0 0 1-7.996-7.996c-.016-70.468 27.44-136.734 77.278-186.572 49.852-49.852 116.102-77.308 186.586-77.308a7.992 7.992 0 0 1 7.996 7.998 7.992 7.992 0 0 1-7.996 7.996c-66.204 0-128.442 25.786-175.28 72.624-46.822 46.822-72.592 109.058-72.592 175.264a7.992 7.992 0 0 1-7.996 7.994zm566.24 366.878a7.968 7.968 0 0 1-5.652-2.344l-72.874-72.872c-3.124-3.124-3.124-8.186 0-11.308s8.184-3.124 11.306 0l72.874 72.874a7.992 7.992 0 0 1 0 11.306 7.968 7.968 0 0 1-5.654 2.344zm56.538-56.506a7.98 7.98 0 0 1-5.654-2.342l-72.872-72.904a7.994 7.994 0 0 1 0-11.308 7.992 7.992 0 0 1 11.306 0l72.874 72.904a7.994 7.994 0 0 1-5.654 13.65z"/><path d="M678.986 746.174a7.994 7.994 0 0 1-5.654-13.65l79.152-79.15c3.124-3.124 8.184-3.124 11.306 0s3.124 8.184 0 11.306l-79.15 79.152a7.98 7.98 0 0 1-5.654 2.342z"/><path d="M978.256 887.14a7.98 7.98 0 0 1-5.654-2.342L752.484 664.68a7.992 7.992 0 0 1 0-11.306 7.992 7.992 0 0 1 11.306 0l220.12 220.118a7.994 7.994 0 0 1-5.654 13.648zm-78.09 80.182a7.974 7.974 0 0 1-5.654-2.342l-221.18-221.148a7.994 7.994 0 0 1 0-11.308 7.994 7.994 0 0 1 11.308 0l221.18 221.148a7.994 7.994 0 0 1-5.654 13.65z"/><path d="M939.79 983.754c-17.118 0-33.188-6.67-45.278-18.774a7.994 7.994 0 0 1 0-11.308 8.028 8.028 0 0 1 11.324 0c9.058 9.09 21.116 14.088 33.954 14.088h.016a47.534 47.534 0 0 0 33.86-14.042c9.09-9.072 14.086-21.128 14.086-33.938 0-12.804-4.996-24.864-14.086-33.954a7.992 7.992 0 0 1 0-11.306 7.992 7.992 0 0 1 11.306 0c12.104 12.104 18.774 28.174 18.774 45.26s-6.67 33.158-18.774 45.246c-12.042 12.056-28.08 18.726-45.166 18.726h-.016zm-118.774 40.136a7.968 7.968 0 0 1-5.654-2.344 7.992 7.992 0 0 1 0-11.306l56.538-56.568a7.992 7.992 0 0 1 11.306 0 7.994 7.994 0 0 1 0 11.308l-56.538 56.566a7.96 7.96 0 0 1-5.652 2.344z"/><path d="M821.016 1023.89a7.968 7.968 0 0 1-5.654-2.344l-45.228-45.26a7.992 7.992 0 0 1 0-11.306l5.652-5.654-11.306-11.306-5.654 5.652a7.992 7.992 0 0 1-11.306 0l-11.306-11.306a7.974 7.974 0 0 1-1.922-8.184l9.73-29.22-2.156-2.172-16.992 16.976a8.002 8.002 0 0 1-11.306-.016l-22.616-22.614a7.994 7.994 0 0 1 0-11.308 7.994 7.994 0 0 1 11.308 0l16.96 16.96 16.992-16.96a8.006 8.006 0 0 1 11.306 0l11.306 11.308a8.014 8.014 0 0 1 1.938 8.184l-9.746 29.236 2.156 2.154 5.652-5.652a7.994 7.994 0 0 1 11.308 0l22.614 22.614a7.994 7.994 0 0 1 0 11.308l-5.652 5.652 39.574 39.608a7.992 7.992 0 0 1 0 11.306 7.96 7.96 0 0 1-5.652 2.344z"/><path d="M696.604 899.478a7.994 7.994 0 0 1-5.654-13.65l56.568-56.536a7.992 7.992 0 0 1 11.306 0 7.992 7.992 0 0 1 0 11.306l-56.566 56.538a7.964 7.964 0 0 1-5.654 2.342zM798.4 1001.276a7.994 7.994 0 0 1-5.654-13.65l5.654-5.652a7.992 7.992 0 0 1 11.306 0 7.992 7.992 0 0 1 0 11.306l-5.652 5.654a7.97 7.97 0 0 1-5.654 2.342zm158.304-90.49a7.97 7.97 0 0 1-5.654-2.342L752.486 709.88a7.994 7.994 0 0 1 0-11.308 7.992 7.992 0 0 1 11.306 0l198.564 198.566a7.992 7.992 0 0 1-5.652 13.648z"/></svg><svg viewBox="0 0 60 60" id="c-2" xmlns="http://www.w3.org/2000/svg"><path d="M26.205 26.293a.999.999 0 0 0 0 1.414l6 6a.997.997 0 0 0 1.414 0 .999.999 0 0 0 0-1.414l-6-6a.999.999 0 0 0-1.414 0Zm-2.586 4a.999.999 0 1 0-1.414 1.414l6 6a.997.997 0 0 0 1.414 0 .999.999 0 0 0 0-1.414l-6-6Zm-4 4a.999.999 0 1 0-1.414 1.414l6 6a.997.997 0 0 0 1.414 0 .999.999 0 0 0 0-1.414l-6-6ZM38.5 32 27.911 21.414 13.326 36l10.586 10.586L38.498 32Zm-9.88-12.707 12 12a.999.999 0 0 1 0 1.414l-16 16a.997.997 0 0 1-1.414 0l-12-12a.999.999 0 0 1 0-1.414l16-16a.999.999 0 0 1 1.414 0Zm23.268 17.282a.998.998 0 0 0-1.369.357l-11.462 19.55c-.828 1.433-2.667 1.926-4.055 1.126l-2.233-1.447a.999.999 0 1 0-1.087 1.678l2.276 1.475a4.972 4.972 0 0 0 2.492.668 4.998 4.998 0 0 0 4.335-2.494l11.46-19.545a1 1 0 0 0-.357-1.368ZM59.912 5v16c0 3.094-.984 5.399-3.293 7.707l-29.698 29.74a4.968 4.968 0 0 1-3.537 1.464 4.958 4.958 0 0 1-3.534-1.464L1.465 40.063A4.969 4.969 0 0 1 0 36.526c0-1.336.52-2.591 1.465-3.535L27.44 7.05C20.647 5.509 16.432 5.405 15.2 5.766c.52.533 2.143 1.665 6.06 3.209a1 1 0 0 1-.733 1.86C12.418 7.64 12.892 5.868 13.071 5.2c.371-1.39 2.352-1.853 6.41-1.498 3.305.289 7.571 1.104 12.012 2.293 4.441 1.19 8.541 2.617 11.547 4.02 3.695 1.723 5.176 3.112 4.803 4.503-.36 1.342-2.23 1.506-2.846 1.56a1 1 0 0 1-.174-1.992c.426-.037.71-.095.892-.147-.428-.447-1.51-1.144-3.243-1.974a3.993 3.993 0 0 0-.56 2.035c0 2.206 1.794 4 4 4s4-1.794 4-4-1.794-4-4-4a1 1 0 1 1 0-2c3.31 0 6 2.69 6 6 0 3.309-2.69 6-6 6-3.309 0-6-2.691-6-6 0-1.003.264-1.98.735-2.852-2.393-1.005-5.603-2.13-9.67-3.221-.43-.115-.843-.22-1.256-.325L2.88 34.406a2.977 2.977 0 0 0-.88 2.12c0 .802.312 1.555.88 2.122l18.384 18.385c1.133 1.133 3.11 1.133 4.242 0l29.698-29.74c1.95-1.948 2.708-3.713 2.708-6.293V5c0-1.654-1.346-3-3-3h-16c-2.58 0-4.345.759-6.293 2.707a.999.999 0 1 1-1.414-1.414C33.513.983 35.818 0 38.912 0h16c2.757 0 5 2.243 5 5Z" fill-rule="evenodd"/></svg><svg viewBox="0 0 256 256" xml:space="preserve" id="c-3" xmlns="http://www.w3.org/2000/svg"><path d="M63.1 106.3H9.9c-2.7 0-4.9 2.2-4.9 4.9s2.2 4.9 4.9 4.9h53.2c2.7 0 4.9-2.2 4.9-4.9s-2.2-4.9-4.9-4.9zm0 28.9H38.6c-2.7 0-4.9 2.2-4.9 4.9s2.2 4.9 4.9 4.9h24.5c2.7 0 4.9-2.2 4.9-4.9s-2.2-4.9-4.9-4.9zm0 28.9H22.7c-2.7 0-4.9 2.2-4.9 4.9s2.2 4.9 4.9 4.9h40.4c2.7 0 4.9-2.2 4.9-4.9s-2.2-4.9-4.9-4.9zm179.8-60.2c-4-8.5-9.3-16.2-15.8-22.9-3.1-3.3-6.6-6.3-10.2-9l6.4-8.5c1.6-2.2 1.2-5.3-1-6.9-2.2-1.6-5.3-1.2-6.9 1l-6.8 9c-4.5-2.7-9.3-4.9-14.2-6.7-4.3-1.5-8.7-2.7-13.2-3.6-2.9-.5-5.9-.9-8.8-1.1V40.3h9.9c2.7 0 4.9-2.2 4.9-4.9s-2.2-4.9-4.9-4.9h-29.7c-2.7 0-4.9 2.2-4.9 4.9s2.2 4.9 4.9 4.9h9.9v14.5c-11.4.4-22.7 3.1-33.1 7.9-8.5 4-16.2 9.2-23 15.7-9.5 9-16.8 20.3-21.3 32.6-1.6 4.3-2.8 8.9-3.7 13.5-.9 4.6-1.3 9.2-1.5 13.8-.3 13.2 2.5 26.4 8.2 38.4 4 8.4 9.2 16 15.7 22.7 9.1 9.5 20.4 16.8 32.7 21.2 4.3 1.5 8.7 2.7 13.2 3.6 4.5.8 9 1.3 13.6 1.4h2.2c12.4 0 24.8-2.7 36-8 8.4-3.9 16.1-9.1 22.8-15.5 9.6-9.1 17-20.4 21.5-32.8 1.6-4.3 2.8-8.9 3.6-13.4.9-4.6 1.4-9.3 1.5-13.9.4-13.1-2.4-26.3-8-38.1zm-3.1 50.1c-.8 4.1-1.8 8-3.2 11.9-4 10.9-10.5 21-19 29-5.9 5.6-12.7 10.3-20.2 13.7-10.5 4.9-22.3 7.4-33.7 7-4-.1-8-.5-12-1.3-4-.7-7.9-1.8-11.7-3.1-10.9-3.9-20.9-10.4-28.9-18.8-5.7-5.9-10.4-12.7-13.9-20.1-5-10.5-7.5-22.3-7.2-33.9.1-4.1.5-8.2 1.3-12.2.8-4.1 1.9-8.1 3.2-11.9 3.9-10.9 10.4-20.8 18.8-28.8 6-5.7 12.8-10.4 20.4-13.9 9.9-4.6 20.9-7 31.8-7h1.9c4 .1 8 .5 12 1.3 4 .7 7.9 1.8 11.7 3.2C202 73 212 79.4 220 87.8c5.7 6 10.4 12.8 14 20.3 4.9 10.5 7.4 22.1 7.1 33.7-.1 4-.5 8.2-1.3 12.2z"/><path d="M196.1 105.9 175 125c-1.1-.7-2.2-1.2-3.4-1.7-.9-.3-1.8-.6-2.7-.7-1-.2-1.9-.3-2.8-.3-2.7-.1-5.5.5-8 1.7-1.8.8-3.4 1.9-4.8 3.3-2 1.9-3.5 4.2-4.4 6.8-.3.9-.6 1.8-.8 2.8-.2 1-.3 1.9-.3 2.9-.1 2.8.5 5.5 1.7 8 .8 1.8 1.9 3.3 3.3 4.7 1.9 2 4.3 3.5 6.8 4.4.9.3 1.8.6 2.7.7.9.2 1.9.3 2.8.3h.5c2.6 0 5.2-.6 7.5-1.7 1.7-.8 3.4-1.9 4.8-3.2 2-1.9 3.5-4.3 4.5-6.8.3-.9.6-1.8.8-2.8.2-1 .3-1.9.3-2.9.1-2.7-.5-5.5-1.7-8 0-.1-.1-.1-.1-.2l21.2-19.1c2-1.8 2.2-5 .4-7-2-1.9-5.1-2.1-7.2-.3zm-22.7 35.7c-.1.4-.2.9-.3 1.3-.4 1.1-1.1 2.2-2 3-.6.6-1.3 1.1-2.1 1.4-1.1.5-2.3.7-3.5.7-.4 0-.9-.1-1.3-.1l-1.2-.3c-1.1-.4-2.2-1.1-3-2-.6-.6-1.1-1.3-1.5-2.1-.5-1.1-.8-2.3-.8-3.5 0-.4.1-.9.1-1.3.1-.4.2-.9.3-1.3.4-1.1 1.1-2.2 2-3 .6-.6 1.3-1.1 2.1-1.5 1.1-.5 2.2-.7 3.3-.7h.2c.4 0 .8.1 1.3.1l1.2.3c1.2.4 2.2 1.1 3 2 .6.6 1.1 1.4 1.5 2.1.5 1.1.8 2.3.7 3.5.1.5 0 1 0 1.4z"/></svg><svg viewBox="0 0 20 20" id="fb" xmlns="http://www.w3.org/2000/svg"><path d="M9.999 0C4.477 0 0 4.477 0 9.999c0 4.99 3.656 9.126 8.437 9.879V12.89h-2.54V9.999h2.54V7.796c0-2.508 1.493-3.891 3.776-3.891 1.094 0 2.24.195 2.24.195v2.459h-1.264c-1.24 0-1.628.772-1.628 1.563v1.875h2.771l-.443 2.891h-2.328v6.988c4.781-.749 8.437-4.886 8.437-9.877C19.998 4.477 15.521 0 9.999 0Z"/></svg><svg viewBox="0 0 18 19" id="in" xmlns="http://www.w3.org/2000/svg"><path d="M8.997 4.372a4.623 4.623 0 1 0 0 9.248 4.623 4.623 0 0 0 0-9.248Zm0 7.627a3.004 3.004 0 1 1 0-6.008 3.004 3.004 0 0 1 0 6.008Zm4.807-6.719a1.078 1.078 0 1 0 0-2.156 1.078 1.078 0 0 0 0 2.156Z"/><path d="M17.531 3.106A4.605 4.605 0 0 0 14.898.474a6.606 6.606 0 0 0-2.186-.42C11.749.012 11.444 0 9.002 0s-2.755 0-3.71.054a6.554 6.554 0 0 0-2.184.42A4.6 4.6 0 0 0 .475 3.106a6.585 6.585 0 0 0-.419 2.186C.013 6.254 0 6.559 0 9.002c0 2.442 0 2.753.056 3.71.015.748.156 1.486.419 2.187a4.61 4.61 0 0 0 2.634 2.632 6.584 6.584 0 0 0 2.185.45c.963.042 1.268.055 3.71.055s2.755 0 3.71-.055a6.615 6.615 0 0 0 2.186-.419 4.613 4.613 0 0 0 2.633-2.633c.263-.7.404-1.438.419-2.186.043-.962.056-1.267.056-3.71s0-2.753-.056-3.71a6.581 6.581 0 0 0-.421-2.217Zm-1.218 9.532a5.043 5.043 0 0 1-.311 1.688 2.987 2.987 0 0 1-1.712 1.711 4.985 4.985 0 0 1-1.67.311c-.95.044-1.218.055-3.654.055-2.438 0-2.687 0-3.655-.055a4.96 4.96 0 0 1-1.669-.311 2.985 2.985 0 0 1-1.719-1.711 5.08 5.08 0 0 1-.311-1.669c-.043-.95-.053-1.218-.053-3.654 0-2.437 0-2.686.053-3.655a5.038 5.038 0 0 1 .311-1.687c.305-.789.93-1.41 1.719-1.712a5.01 5.01 0 0 1 1.669-.311c.951-.043 1.218-.055 3.655-.055s2.687 0 3.654.055a4.96 4.96 0 0 1 1.67.311 2.991 2.991 0 0 1 1.712 1.712 5.08 5.08 0 0 1 .311 1.669c.043.951.054 1.218.054 3.655 0 2.436 0 2.698-.043 3.654h-.011v-.001Z"/></svg><svg viewBox="0 0 22 17" id="tw" xmlns="http://www.w3.org/2000/svg"><path d="M21.457 2.012a8.58 8.58 0 0 1-2.465.676A4.305 4.305 0 0 0 20.88.314a8.591 8.591 0 0 1-2.725 1.041 4.292 4.292 0 0 0-7.313 3.914A12.184 12.184 0 0 1 1.995.787a4.271 4.271 0 0 0-.58 2.157 4.29 4.29 0 0 0 1.908 3.572 4.276 4.276 0 0 1-1.944-.537v.054c0 2.08 1.48 3.814 3.443 4.209a4.296 4.296 0 0 1-1.938.073 4.296 4.296 0 0 0 4.009 2.98 8.61 8.61 0 0 1-5.33 1.838c-.347 0-.688-.02-1.024-.06A12.147 12.147 0 0 0 7.118 17c7.893 0 12.21-6.54 12.21-12.21 0-.187-.004-.372-.012-.556a8.719 8.719 0 0 0 2.141-2.222Z"/></svg><svg viewBox="0 0 21 15" id="yt" xmlns="http://www.w3.org/2000/svg"><path d="M20.591 2.203A2.506 2.506 0 0 0 18.83.437C17.263.007 11 0 11 0S4.733-.007 3.166.404A2.56 2.56 0 0 0 1.4 2.182C.988 3.748.984 6.996.984 6.996S.98 10.26 1.39 11.81c.23.857.905 1.534 1.763 1.765 1.582.43 7.83.437 7.83.437s6.265.007 7.831-.403a2.515 2.515 0 0 0 1.767-1.763c.414-1.565.417-4.812.417-4.812s.02-3.265-.407-4.831ZM8.994 10.005l.005-6 5.207 3.005-5.212 2.995Z"/></svg></svg>